<svg id="visual" viewBox="0 0 900 600" width="900" height="600" xmlns="http://www.w3.org/2000/svg" xmlns:xlink="http://www.w3.org/1999/xlink" version="1.1"><rect x="0" y="0" width="900" height="600" fill="#001220"></rect><defs><linearGradient id="grad1_0" x1="33.3%" y1="0%" x2="100%" y2="100%"><stop offset="20%" stop-color="#001220" stop-opacity="1"></stop><stop offset="80%" stop-color="#001220" stop-opacity="1"></stop></linearGradient></defs><defs><linearGradient id="grad2_0" x1="0%" y1="0%" x2="66.7%" y2="100%"><stop offset="20%" stop-color="#001220" stop-opacity="1"></stop><stop offset="80%" stop-color="#001220" stop-opacity="1"></stop></linearGradient></defs><g transform="translate(900, 0)"><path d="M0 108.2C-11.3 100.4 -22.6 92.6 -36.7 88.7C-50.9 84.8 -67.8 84.9 -76.5 76.5C-85.2 68.1 -85.7 51.3 -89.6 37.1C-93.5 23 -100.8 11.5 -108.2 0L0 0Z" fill="#FBAE3C"></path></g><g transform="translate(0, 600)"><path d="M0 -108.2C15.1 -106.8 30.1 -105.4 40.6 -97.9C51 -90.4 56.8 -76.8 67.2 -67.2C77.5 -57.5 92.4 -51.9 99.9 -41.4C107.5 -30.9 107.8 -15.4 108.2 0L0 0Z" fill="#FBAE3C"></path></g></svg>